<svg width="40" height="40" viewBox="0 0 40 40" fill="none" xmlns="http://www.w3.org/2000/svg">
<path d="M25.8414 20.4417H24.9547V23.8404H25.8414C26.7702 23.8404 27.5259 24.5961 27.5259 25.525V27.2621C27.5259 28.191 26.7702 28.9467 25.8414 28.9467H20.2296C19.3007 28.9467 18.545 28.191 18.545 27.2621V16.6393H15.1464V27.2621C15.1464 30.065 17.4267 32.3453 20.2296 32.3453H25.8414C28.6442 32.3453 30.9246 30.065 30.9246 27.2621V25.525C30.9246 22.7221 28.6442 20.4417 25.8414 20.4417Z" fill="#212121"/>
<path d="M20.9418 11.5169C21.8707 11.5169 22.6264 12.2726 22.6264 13.2015V14.9386C22.6264 15.8675 21.8707 16.6232 20.9418 16.6232H20.0551V20.0218H20.9418C23.7447 20.0218 26.025 17.7415 26.025 14.9386V13.2015C26.025 10.3986 23.7447 8.11823 20.9418 8.11823H15.3301C12.5271 8.11823 10.2468 10.3986 10.2468 13.2015V26.5693H13.6454V13.2015C13.6454 12.2726 14.4011 11.5169 15.3301 11.5169L20.9418 11.5169Z" fill="#212121"/>
<path d="M26.2841 0H13.7159C6.15296 0 0 6.1531 0 13.716V26.2843C0 33.8472 6.15297 40 13.7159 40H26.2841C33.847 40 40 33.8472 40 26.2843V13.716C40 6.1531 33.847 0 26.2841 0ZM36.1386 26.2843C36.1386 31.7179 31.7179 36.1386 26.2841 36.1386H13.7159C8.28207 36.1386 3.86144 31.7179 3.86144 26.2843V13.716C3.86144 8.28207 8.28207 3.86145 13.7159 3.86145H26.2841C31.7179 3.86145 36.1386 8.28207 36.1386 13.716V26.2843Z" fill="#212121"/>
</svg>
