<svg width="75" height="74" viewBox="0 0 75 74" fill="none" xmlns="http://www.w3.org/2000/svg">
<g clip-path="url(#clip0_148_445)">
<path d="M48.3065 37.8173H46.6661V44.1047H48.3065C50.0249 44.1047 51.4229 45.5028 51.4229 47.2213V50.4349C51.4229 52.1534 50.0249 53.5515 48.3065 53.5515H37.9247C36.2063 53.5515 34.8082 52.1534 34.8082 50.4349V30.7828H28.5208V50.4349C28.5208 55.6202 32.7394 59.8389 37.9247 59.8389H48.3065C53.4918 59.8389 57.7104 55.6202 57.7104 50.4349V47.2213C57.7104 42.036 53.4918 37.8173 48.3065 37.8173Z" fill="#1A73E8"/>
<path d="M39.2424 21.3063C40.9608 21.3063 42.3589 22.7043 42.3589 24.4228V27.6365C42.3589 29.355 40.9608 30.753 39.2424 30.753H37.6021V37.0405H39.2424C44.4278 37.0405 48.6464 32.8218 48.6464 27.6365V24.4228C48.6464 19.2375 44.4278 15.0188 39.2424 15.0188H28.8607C23.6753 15.0188 19.4567 19.2375 19.4567 24.4228V49.1532H25.7441V24.4228C25.7441 22.7043 27.1422 21.3063 28.8607 21.3063H39.2424Z" fill="#1A73E8"/>
<path d="M49.1257 0H25.8743C11.883 0 0.5 11.3832 0.5 25.3746V48.6259C0.5 62.6173 11.883 74 25.8743 74H49.1257C63.117 74 74.5 62.6173 74.5 48.6259V25.3746C74.5 11.3832 63.117 0 49.1257 0ZM67.3563 48.6259C67.3563 58.6782 59.1782 66.8563 49.1257 66.8563H25.8743C15.8218 66.8563 7.64367 58.6782 7.64367 48.6259V25.3746C7.64367 15.3218 15.8218 7.14367 25.8743 7.14367H49.1257C59.1782 7.14367 67.3563 15.3218 67.3563 25.3746V48.6259Z" fill="#1A73E8"/>
</g>
<defs>
<clipPath id="clip0_148_445">
<rect width="74" height="74" fill="white" transform="translate(0.5)"/>
</clipPath>
</defs>
</svg>
