<svg width="48" height="48" viewBox="0 0 48 48" fill="none" xmlns="http://www.w3.org/2000/svg">
<path fill-rule="evenodd" clip-rule="evenodd" d="M22.8335 5.33333C16.6525 5.33333 11.7245 10.8867 12.3965 17C12.4587 17.5661 12.3139 18.1355 11.9888 18.6031C11.6636 19.0707 11.1802 19.4046 10.6278 19.5433C8.978 19.9661 7.53873 20.9755 6.57928 22.3827C5.61982 23.7898 5.2059 25.4983 5.41497 27.1886C5.62403 28.8788 6.44175 30.435 7.71515 31.566C8.98855 32.697 10.6304 33.3253 12.3335 33.3333H14.6668C15.2857 33.3333 15.8792 33.5792 16.3167 34.0167C16.7543 34.4543 17.0002 35.0478 17.0002 35.6667C17.0002 36.2855 16.7543 36.879 16.3167 37.3166C15.8792 37.7542 15.2857 38 14.6668 38H12.3335C9.65182 38.0018 7.05141 37.0796 4.96994 35.3888C2.88847 33.698 1.45303 31.3417 0.905218 28.7166C0.357405 26.0915 0.730667 23.3578 1.96218 20.9756C3.19369 18.5934 5.20827 16.7082 7.66682 15.6373C7.70897 12.0998 8.98643 8.68838 11.2781 5.99325C13.5698 3.29813 16.7316 1.48892 20.2163 0.878696C23.701 0.26847 27.2894 0.895619 30.3606 2.65162C33.4318 4.40763 35.7924 7.182 37.0342 10.4947C40.2992 11.3951 43.1273 13.4482 44.9947 16.2739C46.8621 19.0995 47.6422 22.5061 47.1906 25.8628C46.739 29.2194 45.0862 32.2987 42.5384 34.5303C39.9906 36.7619 36.7204 37.9945 33.3335 38C32.7147 38 32.1212 37.7542 31.6836 37.3166C31.246 36.879 31.0002 36.2855 31.0002 35.6667C31.0002 35.0478 31.246 34.4543 31.6836 34.0167C32.1212 33.5792 32.7147 33.3333 33.3335 33.3333C35.6786 33.3369 37.939 32.4575 39.6652 30.8701C41.3914 29.2828 42.4567 27.1038 42.6494 24.7667C42.842 22.4295 42.1478 20.1055 40.7048 18.257C39.2618 16.4084 37.1758 15.1708 34.8618 14.7903C34.4163 14.7167 34.0012 14.5165 33.6662 14.2137C33.3311 13.9109 33.0901 13.5182 32.9718 13.0823C32.3676 10.8565 31.0473 8.89161 29.2148 7.49104C27.3824 6.09048 25.1399 5.3322 22.8335 5.33333ZM26.3335 24.9707L29.3505 27.9853C29.5674 28.202 29.8249 28.3738 30.1083 28.4909C30.3916 28.608 30.6952 28.6682 31.0018 28.668C31.3084 28.6677 31.6119 28.6071 31.8951 28.4896C32.1783 28.3721 32.4355 28.1999 32.6522 27.983C32.8688 27.7661 33.0406 27.5086 33.1577 27.2252C33.2748 26.9419 33.335 26.6383 33.3348 26.3317C33.3346 26.0251 33.274 25.7215 33.1564 25.4384C33.0389 25.1552 32.8668 24.898 32.6498 24.6813L26.0605 18.1037C25.5137 17.5579 24.7727 17.2514 24.0002 17.2514C23.2276 17.2514 22.4866 17.5579 21.9398 18.1037L15.3505 24.6837C14.9127 25.1212 14.6666 25.7147 14.6664 26.3337C14.6661 26.9526 14.9118 27.5463 15.3493 27.9842C15.7868 28.422 16.3804 28.6681 16.9993 28.6683C17.6183 28.6685 18.212 28.4228 18.6498 27.9853L21.6668 24.9707V45C21.6668 45.6188 21.9127 46.2123 22.3502 46.6499C22.7878 47.0875 23.3813 47.3333 24.0002 47.3333C24.619 47.3333 25.2125 47.0875 25.6501 46.6499C26.0877 46.2123 26.3335 45.6188 26.3335 45V24.9707Z" fill="#979797"/>
</svg>
